<?xml version="1.0" encoding="utf-8"?><svg xmlns="http://www.w3.org/2000/svg" xmlns:xlink="http://www.w3.org/1999/xlink" width="1536" height="722" preserveAspectRatio="xMidYMid" viewBox="0 0 1536 722" style="z-index:1;margin-right:-2px;display:block;background-repeat-y:initial;background-repeat-x:initial;background-color:rgb(241, 242, 243);animation-play-state:paused" ><g transform="translate(768,361) scale(1,1) translate(-768,-361)" style="transform:matrix(1, 0, 0, 1, 0, 0);animation-play-state:paused" ><linearGradient id="lg-0.1898066067767481" x1="0" x2="1" y1="0" y2="0" style="animation-play-state:paused" ><stop stop-color="#353535" offset="0" style="animation-play-state:paused" ></stop>

  
<stop stop-color="#666666" offset="1" style="animation-play-state:paused" ></stop></linearGradient>
<path d="M 0 0 L 0 646.769 Q 153.6 631.211 307.2 601.507 T 614.4 510.487 T 921.6 485.926 T 1228.8 343.174 T 1536 323.44 L 1536 0 Z" fill="url(#lg-0.1898066067767481)" opacity="0.4" style="opacity:0.4;animation-play-state:paused" ></path>
<path d="M 0 0 L 0 625.215 Q 153.6 621.61 307.2 590.68 T 614.4 493.933 T 921.6 469.037 T 1228.8 341.422 T 1536 314.239 L 1536 0 Z" fill="url(#lg-0.1898066067767481)" opacity="0.4" style="opacity:0.4;animation-play-state:paused" ></path>
<path d="M 0 0 L 0 657.489 Q 153.6 601.513 307.2 565.042 T 614.4 536.136 T 921.6 505.79 T 1228.8 389.844 T 1536 338.115 L 1536 0 Z" fill="url(#lg-0.1898066067767481)" opacity="0.4" style="opacity:0.4;animation-play-state:paused" ></path>
<path d="M 0 0 L 0 668.344 Q 153.6 583.983 307.2 558.959 T 614.4 499.797 T 921.6 414.296 T 1228.8 347.036 T 1536 340.414 L 1536 0 Z" fill="url(#lg-0.1898066067767481)" opacity="0.4" style="opacity:0.4;animation-play-state:paused" ></path>
<path d="M 0 0 L 0 669.068 Q 153.6 658.194 307.2 627.648 T 614.4 526.242 T 921.6 467.578 T 1228.8 367.087 T 1536 278.153 L 1536 0 Z" fill="url(#lg-0.1898066067767481)" opacity="0.4" style="opacity:0.4;animation-play-state:paused" ></path></g></svg>